/* XPM */
static char * hide_prelight_xpm[] = {
"28 28 22 1",
" 	c None",
".	c #21252B",
"+	c #353B48",
"@	c #002b36",
"#	c #2E333E",
"$	c #2A2E37",
"%	c #262B34",
"&	c #252932",
"*	c #2A2E38",
"=	c #657b83",
"-	c #262A34",
";	c #2F3641",
">	c #3D4250",
",	c #424959",
"'	c #282B35",
")	c #3D4353",
"!	c #444B5B",
"~	c #3D4252",
"{	c #262B33",
"]	c #3B4250",
"^	c #93a1a1",
"/	c #252933",
"............................",
"++++++++++++++++++++++++++++",
"@@@@@@@@@@@@@@@@@@@@@@@@@@@@",
"@@@@@@@@@@@@@@@@@@@@@@@@@@@@",
"@@@@@@@@@@@@@@@@@@@@@@@@@@@@",
"@@@@@@@@@@@@@@@@@@@@@@@@@@@@",
"@@@@@@@@@@@@@@@@@@@@@@@@@@@@",
"@@@@@@@@@@#$%&&%*#@@@@@@@@@@",
"@@@@@@@@@=-;>,,>;-=@@@@@@@@@",
"@@@@@@@@=')!!!!!!~'=@@@@@@@@",
"@@@@@@@#-)!!!!!!!!~-#@@@@@@@",
"@@@@@@@$;!!!!!!!!!!;*@@@@@@@",
"@@@@@@@{]!!!!!!!!!!]%@@@@@@@",
"@@@@@@@&,!!^^^^^^!!,/@@@@@@@",
"@@@@@@@/,!!^^^^^^!!,/@@@@@@@",
"@@@@@@@%]!!!!!!!!!!]%@@@@@@@",
"@@@@@@@*;!!!!!!!!!!;*@@@@@@@",
"@@@@@@@#-~!!!!!!!!~%#@@@@@@@",
"@@@@@@@@='~!!!!!!~'=@@@@@@@@",
"@@@@@@@@@=-;],,];%=@@@@@@@@@",
"@@@@@@@@@@#*%&&%*#@@@@@@@@@@",
"@@@@@@@@@@@@@@@@@@@@@@@@@@@@",
"@@@@@@@@@@@@@@@@@@@@@@@@@@@@",
"@@@@@@@@@@@@@@@@@@@@@@@@@@@@",
"@@@@@@@@@@@@@@@@@@@@@@@@@@@@",
"@@@@@@@@@@@@@@@@@@@@@@@@@@@@",
"@@@@@@@@@@@@@@@@@@@@@@@@@@@@",
"@@@@@@@@@@@@@@@@@@@@@@@@@@@@"};
