/* XPM */
static char * hide_active_xpm[] = {
"28 28 4 1",
" 	c None",
".	c #EEEFF1",
"+	c #eee8d5",
"@	c #90949E",
"............................",
"++++++++++++++++++++++++++++",
"++++++++++++++++++++++++++++",
"++++++++++++++++++++++++++++",
"++++++++++++++++++++++++++++",
"++++++++++++++++++++++++++++",
"++++++++++++++++++++++++++++",
"++++++++++++++++++++++++++++",
"++++++++++++++++++++++++++++",
"++++++++++++++++++++++++++++",
"++++++++++++++++++++++++++++",
"++++++++++++++++++++++++++++",
"++++++++++++++++++++++++++++",
"+++++++++++@@@@@@+++++++++++",
"+++++++++++@@@@@@+++++++++++",
"++++++++++++++++++++++++++++",
"++++++++++++++++++++++++++++",
"++++++++++++++++++++++++++++",
"++++++++++++++++++++++++++++",
"++++++++++++++++++++++++++++",
"++++++++++++++++++++++++++++",
"++++++++++++++++++++++++++++",
"++++++++++++++++++++++++++++",
"++++++++++++++++++++++++++++",
"++++++++++++++++++++++++++++",
"++++++++++++++++++++++++++++",
"++++++++++++++++++++++++++++",
"++++++++++++++++++++++++++++"};
