/* XPM */
static char * maximize_inactive_xpm[] = {
"28 28 12 1",
" 	c None",
".	c #EEEFF1",
"+	c #eee8d5",
"@	c #E6E7EA",
"#	c #C5C8CD",
"$	c #B5B8C0",
"%	c #BFC2C9",
"&	c #93a1a1",
"*	c #E5E6EA",
"=	c #E6E7EB",
"-	c #C6C8CE",
";	c #BEC1C7",
"............................",
"++++++++++++++++++++++++++++",
"++++++++++++++++++++++++++++",
"++++++++++++++++++++++++++++",
"++++++++++++++++++++++++++++",
"++++++++++++++++++++++++++++",
"++++++++++++++++++++++++++++",
"++++++++++++++++++++++++++++",
"++++++++++++++++++++++++++++",
"++++++++++++++++++++++++++++",
"++++++++++++++++++++++++++++",
"++++++++++++@#$$%+++++++++++",
"+++++++++++@+@#$$+++++++++++",
"++++++++++@&*+=-$+++++++++++",
"++++++++++@$&*+=-+++++++++++",
"++++++++++@$$#@+@+++++++++++",
"+++++++++++;$$#@++++++++++++",
"++++++++++++++++++++++++++++",
"++++++++++++++++++++++++++++",
"++++++++++++++++++++++++++++",
"++++++++++++++++++++++++++++",
"++++++++++++++++++++++++++++",
"++++++++++++++++++++++++++++",
"++++++++++++++++++++++++++++",
"++++++++++++++++++++++++++++",
"++++++++++++++++++++++++++++",
"++++++++++++++++++++++++++++",
"++++++++++++++++++++++++++++"};
