/* XPM */
static char * shade_inactive_xpm[] = {
"18 28 4 1",
" 	c None",
".	c #EEEFF1",
"+	c #eee8d5",
"@	c #B9BFCE",
"..................",
"++++++++++++++++++",
"++++++++++++++++++",
"++++++++++++++++++",
"++++++++++++++++++",
"++++++++++++++++++",
"++++++++++++++++++",
"++++++++++++++++++",
"++++++++++++++++++",
"++++++++++++++++++",
"++++++++++++++++++",
"++++++++@@++++++++",
"+++++++@@@@+++++++",
"++++++@@@@@@++++++",
"+++++@@@@@@@@+++++",
"++++++++++++++++++",
"+++++@@@@@@@@+++++",
"+++++@@@@@@@@+++++",
"++++++++++++++++++",
"++++++++++++++++++",
"++++++++++++++++++",
"++++++++++++++++++",
"++++++++++++++++++",
"++++++++++++++++++",
"++++++++++++++++++",
"++++++++++++++++++",
"++++++++++++++++++",
"++++++++++++++++++"};
